<?xml version="1.0" encoding="UTF-8" ?>
<!DOCTYPE svg PUBLIC "-//W3C//DTD SVG 1.1//EN" "http://www.w3.org/Graphics/SVG/1.1/DTD/svg11.dtd">
<svg width="509pt" height="490pt" viewBox="0 0 509 490" version="1.1" xmlns="http://www.w3.org/2000/svg">
<g id="#feee51ff">
<path fill="#feee51" opacity="1.00" d=" M 0.00 0.00 L 0.31 0.00 C 0.23 0.08 0.08 0.25 0.00 0.33 L 0.00 0.00 Z" />
<path fill="#feee51" opacity="1.00" d=" M 248.47 64.44 C 251.45 60.17 257.36 60.79 261.88 61.28 C 267.81 62.94 269.41 69.72 272.97 74.00 C 278.03 81.89 283.70 89.39 288.41 97.51 C 291.33 101.55 293.73 106.45 298.62 108.44 C 314.71 115.48 332.90 118.17 348.04 127.01 C 348.31 128.54 348.36 130.09 348.63 131.62 C 341.29 140.47 330.50 145.38 322.26 153.26 C 317.02 156.95 311.53 160.67 308.01 166.16 C 306.41 170.97 305.17 177.84 309.92 181.29 C 311.81 180.53 313.78 179.99 315.67 179.21 C 314.90 198.11 317.74 217.34 315.82 235.96 C 314.68 235.63 313.48 235.27 312.78 234.25 C 303.12 223.02 294.19 211.15 286.58 198.43 C 281.12 191.33 275.06 184.66 269.36 177.76 C 266.57 177.77 263.86 178.92 261.05 178.51 C 258.70 178.38 255.15 177.54 254.44 180.67 C 250.56 173.81 254.97 165.09 249.15 158.81 C 241.88 152.51 233.14 147.76 223.85 145.07 C 210.34 138.18 195.10 136.20 181.02 130.97 C 178.82 129.25 176.99 126.94 174.19 126.19 C 172.34 128.16 170.13 130.00 167.22 129.33 C 167.68 126.54 170.52 124.98 172.89 123.93 C 186.39 118.17 200.69 114.66 214.38 109.43 C 218.76 107.89 222.27 104.56 224.61 100.61 C 232.66 88.61 240.43 76.43 248.47 64.44 M 247.08 74.11 C 240.71 82.45 234.66 91.04 228.61 99.62 C 225.14 102.50 222.73 108.02 226.28 111.80 C 227.16 115.27 226.05 119.32 228.44 122.43 C 231.06 128.05 238.07 127.58 243.16 129.08 C 248.58 130.57 249.39 123.28 252.31 120.28 C 257.50 103.34 257.33 85.23 261.13 67.95 C 262.36 64.64 258.17 64.36 256.01 63.79 C 252.07 66.25 249.76 70.45 247.08 74.11 Z" />
<path fill="#feee51" opacity="1.00" d=" M 359.81 280.18 C 360.67 280.11 361.53 279.99 362.38 279.82 C 363.95 280.27 365.31 281.33 366.12 282.75 C 372.90 293.93 380.12 304.82 386.92 315.98 C 391.16 323.18 399.73 325.49 407.10 328.06 C 417.01 332.64 428.40 334.65 437.34 340.93 C 436.91 343.09 436.76 345.47 435.14 347.15 C 429.40 354.09 423.06 360.47 416.37 366.47 C 413.95 369.95 408.80 367.89 406.13 371.14 C 402.85 374.21 400.09 380.64 403.85 384.27 C 405.48 383.62 407.10 382.93 408.70 382.20 C 408.54 393.47 408.55 404.76 408.78 416.03 C 408.83 420.89 411.28 426.43 407.99 430.75 C 401.73 427.28 397.48 421.40 392.81 416.20 C 383.38 409.36 378.24 396.38 366.00 393.71 C 357.51 393.47 350.12 398.62 344.02 404.02 C 335.22 410.23 326.21 416.27 317.09 421.93 C 320.03 409.75 328.47 399.89 333.79 388.73 C 338.09 383.50 339.31 376.62 338.20 370.06 C 334.63 358.26 323.97 351.08 312.88 347.03 C 307.23 345.44 304.58 339.99 300.61 336.21 C 299.23 334.99 300.68 333.27 302.11 333.07 C 309.84 330.60 318.49 334.00 325.89 329.98 C 331.48 327.12 338.53 327.59 343.43 323.43 C 352.13 310.47 357.64 295.64 359.81 280.18 M 307.28 335.27 C 307.76 335.77 307.76 335.77 307.28 335.27 M 307.28 337.27 C 307.77 337.77 307.77 337.77 307.28 337.27 Z" />
</g>
<g id="#8f5608ff">
</g>
<g id="#fedc42ff">
<path fill="#fedc42" opacity="1.00" d=" M 247.08 74.11 C 249.76 70.45 252.07 66.25 256.01 63.79 C 258.17 64.36 262.36 64.64 261.13 67.95 C 257.33 85.23 257.50 103.34 252.31 120.28 C 249.39 123.28 248.58 130.57 243.16 129.08 C 238.07 127.58 231.06 128.05 228.44 122.43 C 226.05 119.32 227.16 115.27 226.28 111.80 C 222.73 108.02 225.14 102.50 228.61 99.62 C 234.66 91.04 240.71 82.45 247.08 74.11 Z" />
<path fill="#fedc42" opacity="1.00" d=" M 174.19 126.19 C 176.99 126.94 178.82 129.25 181.02 130.97 C 195.10 136.20 210.34 138.18 223.85 145.07 C 233.14 147.76 241.88 152.51 249.15 158.81 C 254.97 165.09 250.56 173.81 254.44 180.67 C 255.15 177.54 258.70 178.38 261.05 178.51 C 263.86 178.92 266.57 177.77 269.36 177.76 C 275.06 184.66 281.12 191.33 286.58 198.43 C 294.19 211.15 303.12 223.02 312.78 234.25 C 313.48 235.27 314.68 235.63 315.82 235.96 C 317.74 217.34 314.90 198.11 315.67 179.21 C 313.78 179.99 311.81 180.53 309.92 181.29 C 305.17 177.84 306.41 170.97 308.01 166.16 C 311.53 160.67 317.02 156.95 322.26 153.26 C 330.50 145.38 341.29 140.47 348.63 131.62 C 348.36 130.09 348.31 128.54 348.04 127.01 C 352.17 131.86 348.11 137.92 344.78 141.89 C 338.35 151.95 330.83 161.21 324.05 171.03 C 320.96 174.73 318.59 179.16 317.86 183.97 C 317.21 200.70 319.24 217.38 318.78 234.11 C 318.74 236.61 317.38 238.84 315.54 240.44 C 295.69 240.48 278.20 228.74 258.99 225.48 C 245.98 228.70 234.12 235.70 220.78 237.61 C 214.81 241.14 205.48 240.39 203.65 232.58 C 202.98 214.09 204.20 195.42 201.13 177.11 C 194.95 165.67 187.33 155.11 178.99 145.13 C 176.06 139.10 171.44 134.40 167.22 129.33 C 170.13 130.00 172.34 128.16 174.19 126.19 Z" />
<path fill="#fedc42" opacity="1.00" d=" M 114.90 267.68 C 116.95 262.86 121.42 258.35 126.95 258.25 C 131.37 259.07 133.82 263.30 136.54 266.44 C 144.54 272.70 151.30 280.40 158.66 287.38 C 162.69 290.67 168.15 290.73 173.05 291.46 C 182.95 293.03 193.04 293.27 202.86 295.40 C 205.62 296.44 208.45 299.31 207.38 302.49 C 203.90 314.29 198.90 325.53 195.05 337.21 C 193.80 340.40 194.69 343.88 195.68 347.01 C 198.82 358.37 204.40 368.98 206.45 380.63 C 207.17 383.32 204.65 385.60 202.01 385.02 C 189.96 383.70 177.88 382.93 165.84 381.52 C 158.68 381.23 153.21 386.49 146.93 389.04 C 136.24 395.46 124.91 403.08 112.05 402.57 C 108.69 398.77 109.25 392.79 109.16 387.91 C 106.97 382.15 109.35 375.87 107.45 370.05 C 105.91 364.99 107.72 359.53 105.89 354.57 C 103.70 349.55 98.19 347.83 94.43 344.34 C 88.19 339.00 80.23 335.59 75.23 328.86 C 74.14 327.85 72.89 327.01 71.56 326.35 C 71.97 320.23 78.41 317.01 83.09 314.18 C 89.31 308.72 97.21 305.87 103.88 301.09 C 106.71 298.39 107.21 294.38 108.07 290.77 C 110.39 283.08 112.77 275.42 114.90 267.68 Z" />
<path fill="#fedc42" opacity="1.00" d=" M 348.13 288.10 C 351.17 283.06 356.68 277.67 363.09 279.41 L 362.38 279.82 C 361.53 279.99 360.67 280.11 359.81 280.18 C 357.64 295.64 352.13 310.47 343.43 323.43 C 338.53 327.59 331.48 327.12 325.89 329.98 C 318.49 334.00 309.84 330.60 302.11 333.07 C 300.68 333.27 299.23 334.99 300.61 336.21 C 304.58 339.99 307.23 345.44 312.88 347.03 C 323.97 351.08 334.63 358.26 338.20 370.06 C 339.31 376.62 338.09 383.50 333.79 388.73 C 328.47 399.89 320.03 409.75 317.09 421.93 C 326.21 416.27 335.22 410.23 344.02 404.02 C 350.12 398.62 357.51 393.47 366.00 393.71 C 378.24 396.38 383.38 409.36 392.81 416.20 C 397.48 421.40 401.73 427.28 407.99 430.75 C 411.28 426.43 408.83 420.89 408.78 416.03 C 408.55 404.76 408.54 393.47 408.70 382.20 C 407.10 382.93 405.48 383.62 403.85 384.27 C 400.09 380.64 402.85 374.21 406.13 371.14 C 408.80 367.89 413.95 369.95 416.37 366.47 C 423.06 360.47 429.40 354.09 435.14 347.15 C 436.76 345.47 436.91 343.09 437.34 340.93 C 438.91 343.45 439.32 346.95 437.28 349.35 C 431.47 357.23 425.37 364.87 419.61 372.79 C 416.31 378.02 410.21 382.19 410.51 389.02 C 410.56 402.33 410.89 415.65 410.69 428.96 C 410.83 431.73 407.41 433.28 405.09 432.24 C 393.69 427.90 382.12 424.01 370.89 419.23 C 365.34 416.50 359.00 415.59 352.96 417.17 C 341.30 419.98 329.70 422.93 317.99 425.43 C 314.59 424.13 310.05 421.28 310.52 417.02 C 310.32 402.54 310.77 388.02 310.25 373.58 C 302.14 361.27 294.35 348.70 286.99 335.92 C 285.97 333.26 282.56 329.20 285.74 326.94 C 297.93 323.39 310.45 321.14 322.70 317.82 C 328.34 316.54 330.20 310.43 333.72 306.58 C 339.04 300.83 343.02 294.02 348.13 288.10 Z" />
<path fill="#fedc42" opacity="1.00" d=" M 307.28 335.27 C 307.76 335.77 307.76 335.77 307.28 335.27 Z" />
<path fill="#fedc42" opacity="1.00" d=" M 307.28 337.27 C 307.77 337.77 307.77 337.77 307.28 337.27 Z" />
</g>
</svg>
