<?xml version="1.0" encoding="UTF-8" ?>
<!DOCTYPE svg PUBLIC "-//W3C//DTD SVG 1.1//EN" "http://www.w3.org/Graphics/SVG/1.1/DTD/svg11.dtd">
<svg width="750pt" height="671pt" viewBox="0 0 750 671" version="1.1" xmlns="http://www.w3.org/2000/svg">
<g id="#4f539dff">
<path fill="#4f539d" opacity="1.00" d=" M 0.00 0.00 L 0.35 0.00 C 0.26 0.09 0.09 0.26 0.00 0.35 L 0.00 0.00 Z" />
<path fill="#4f539d" opacity="1.00" d=" M 201.55 238.47 C 206.89 226.21 219.62 217.72 232.99 217.44 C 311.85 217.22 390.72 217.69 469.58 217.21 C 469.39 226.48 469.37 235.77 469.58 245.04 C 470.05 258.76 482.32 270.59 496.00 270.82 C 514.98 271.52 534.01 270.74 553.00 271.11 C 552.83 323.76 552.99 376.40 552.90 429.04 C 552.52 441.69 544.79 453.92 533.24 459.26 C 525.48 463.33 516.51 463.03 508.00 462.90 C 416.32 462.84 324.64 462.94 232.96 462.86 C 214.81 462.92 198.80 447.07 198.54 428.94 C 198.25 372.30 198.55 315.65 198.39 259.00 C 198.30 252.06 198.68 244.90 201.55 238.47 M 251.33 269.32 C 244.49 270.59 244.95 281.60 252.02 282.00 C 267.99 282.49 284.01 281.90 300.00 282.19 C 303.68 282.25 308.47 282.25 310.23 278.29 C 313.01 273.65 307.95 268.15 303.02 268.95 C 285.80 269.15 268.51 268.41 251.33 269.32 M 334.38 269.39 C 327.46 270.42 327.91 281.81 335.07 282.00 C 349.66 282.38 364.35 282.37 378.95 282.00 C 386.79 281.91 386.81 269.09 378.91 269.19 C 364.11 268.79 349.16 268.44 334.38 269.39 M 408.36 269.36 C 402.29 270.53 402.04 280.57 408.24 281.68 C 417.08 282.43 426.05 282.11 434.91 281.79 C 441.93 282.06 441.87 269.09 434.93 269.12 C 426.09 268.99 417.17 268.58 408.36 269.36 M 252.27 300.29 C 245.56 300.41 244.91 311.85 251.58 312.63 C 259.98 312.77 268.38 312.68 276.78 312.68 C 283.69 312.86 284.01 299.92 276.83 300.25 C 268.64 300.22 260.45 300.13 252.27 300.29 M 306.29 300.30 C 300.38 301.53 299.63 310.58 305.49 312.51 C 311.79 313.39 318.28 313.15 324.62 312.57 C 330.68 311.36 330.67 301.67 324.71 300.28 C 318.61 299.73 312.39 299.72 306.29 300.30 M 352.37 300.33 C 347.86 301.46 346.01 308.30 349.74 311.29 C 351.69 313.07 354.52 312.96 356.99 313.12 C 369.66 313.03 382.33 313.12 395.00 313.14 C 397.64 313.00 400.91 312.98 402.38 310.33 C 405.41 306.29 402.28 299.54 397.01 299.95 C 382.15 300.11 367.19 299.38 352.37 300.33 M 427.30 300.35 C 421.23 301.15 420.42 311.04 426.50 312.51 C 432.24 312.94 438.02 312.61 443.78 312.68 C 450.44 313.06 451.18 300.72 444.58 300.30 C 438.83 300.17 433.04 300.09 427.30 300.35 M 473.42 300.45 C 468.97 301.39 466.92 307.51 470.10 310.87 C 473.36 314.45 478.73 312.91 483.00 313.25 C 487.12 313.06 492.61 314.29 495.32 310.27 C 498.18 306.60 495.46 300.51 490.79 300.29 C 485.03 299.72 479.15 299.56 473.42 300.45 M 250.50 331.46 C 246.40 332.64 244.69 338.27 247.45 341.53 C 249.66 344.42 253.75 344.07 257.00 344.21 C 269.65 343.96 282.33 344.52 294.96 343.95 C 299.66 344.07 303.19 338.53 300.70 334.42 C 298.30 329.79 292.29 331.00 288.00 330.84 C 275.52 331.26 262.89 330.04 250.50 331.46 M 324.49 331.46 C 318.47 332.89 318.87 343.22 325.24 343.61 C 337.36 343.67 349.49 343.72 361.61 343.53 C 367.95 342.46 367.46 331.48 360.90 331.23 C 348.77 331.24 336.58 330.79 324.49 331.46 M 389.42 331.36 C 383.72 332.88 383.59 342.17 389.42 343.56 C 396.23 344.49 403.14 343.74 410.00 344.05 C 413.74 343.76 418.60 344.70 421.06 341.10 C 423.98 337.19 420.89 330.92 415.96 331.03 C 407.13 331.13 398.20 330.50 389.42 331.36 M 445.35 331.30 C 439.62 332.50 438.92 341.56 444.56 343.40 C 450.14 344.51 456.05 344.46 461.66 343.55 C 467.02 341.59 467.03 333.28 461.63 331.36 C 456.28 330.54 450.71 330.63 445.35 331.30 M 251.38 362.38 C 246.88 363.38 245.19 369.47 248.12 372.87 C 250.03 375.17 253.29 375.01 256.00 375.12 C 271.34 374.98 286.69 375.16 302.03 375.09 C 305.14 375.08 308.95 374.59 310.25 371.26 C 312.69 366.65 307.89 361.27 303.04 361.99 C 285.83 362.24 268.55 361.45 251.38 362.38 M 333.48 362.49 C 328.76 364.08 327.78 371.23 332.07 373.92 C 336.03 375.97 340.72 374.92 345.00 375.20 C 348.96 375.10 354.43 375.68 356.44 371.36 C 358.82 367.48 355.37 362.02 350.92 362.08 C 345.14 361.81 339.18 361.30 333.48 362.49 M 251.33 393.28 C 244.48 394.61 244.99 405.46 252.01 405.92 C 263.31 406.18 274.68 406.27 285.98 405.88 C 291.07 406.11 294.12 399.77 291.24 395.76 C 288.39 391.94 283.12 393.06 279.00 392.88 C 269.79 393.19 260.50 392.38 251.33 393.28 M 315.44 393.44 C 309.16 394.77 309.52 405.46 316.20 405.65 C 337.65 405.62 359.13 405.85 380.57 405.53 C 387.00 404.02 385.76 392.79 378.91 393.25 C 357.76 393.31 336.57 392.95 315.44 393.44 M 408.32 393.31 C 402.68 394.52 401.87 403.70 407.58 405.40 C 412.62 406.28 417.83 406.18 422.92 405.77 C 429.37 405.63 429.97 394.36 423.78 393.22 C 418.66 392.77 413.43 392.71 408.32 393.31 Z" />
</g>
<g id="#ffffffff">
<path fill="#ffffff" opacity="1.00" d=" M 552.41 181.33 C 555.38 180.27 560.38 181.70 559.34 185.65 C 554.99 200.27 549.63 214.58 544.94 229.09 C 543.86 231.84 542.93 236.37 539.00 235.63 C 535.53 236.38 533.28 232.50 534.55 229.51 C 538.96 215.98 543.70 202.54 548.09 188.99 C 549.09 186.26 549.85 183.05 552.41 181.33 Z" />
<path fill="#ffffff" opacity="1.00" d=" M 522.51 190.65 C 525.68 189.83 529.17 193.08 528.33 196.32 C 525.94 202.33 517.42 203.91 515.69 209.93 C 518.76 214.69 525.13 216.83 528.30 221.76 C 529.99 225.99 524.05 230.62 520.48 227.57 C 514.57 222.82 508.79 217.88 502.97 213.03 C 500.02 210.53 501.77 206.40 504.59 204.66 C 510.72 200.21 515.94 194.43 522.51 190.65 Z" />
<path fill="#ffffff" opacity="1.00" d=" M 565.33 197.71 C 563.26 193.13 569.35 188.25 573.10 191.84 C 579.10 196.84 585.54 201.43 591.05 206.97 C 593.68 211.50 588.17 214.68 585.21 217.11 C 580.26 220.45 576.44 225.24 571.33 228.31 C 567.04 230.20 563.36 224.38 565.83 220.89 C 569.26 216.74 574.45 214.41 577.58 209.99 C 575.50 204.42 568.32 202.73 565.33 197.71 Z" />
<path fill="#ffffff" opacity="1.00" d=" M 252.27 300.29 C 260.45 300.13 268.64 300.22 276.83 300.25 C 284.01 299.92 283.69 312.86 276.78 312.68 C 268.38 312.68 259.98 312.77 251.58 312.63 C 244.91 311.85 245.56 300.41 252.27 300.29 Z" />
<path fill="#ffffff" opacity="1.00" d=" M 427.30 300.35 C 433.04 300.09 438.83 300.17 444.58 300.30 C 451.18 300.72 450.44 313.06 443.78 312.68 C 438.02 312.61 432.24 312.94 426.50 312.51 C 420.42 311.04 421.23 301.15 427.30 300.35 Z" />
<path fill="#ffffff" opacity="1.00" d=" M 324.49 331.46 C 336.58 330.79 348.77 331.24 360.90 331.23 C 367.46 331.48 367.95 342.46 361.61 343.53 C 349.49 343.72 337.36 343.67 325.24 343.61 C 318.87 343.22 318.47 332.89 324.49 331.46 Z" />
<path fill="#ffffff" opacity="1.00" d=" M 315.44 393.44 C 336.57 392.95 357.76 393.31 378.91 393.25 C 385.76 392.79 387.00 404.02 380.57 405.53 C 359.13 405.85 337.65 405.62 316.20 405.65 C 309.52 405.46 309.16 394.77 315.44 393.44 Z" />
</g>
<g id="#f47db4ff">
<path fill="#f47db4" opacity="1.00" d=" M 477.26 160.25 C 482.82 155.01 490.33 151.90 498.00 151.90 C 531.33 151.93 564.67 151.82 598.00 151.95 C 611.94 152.24 624.42 164.04 625.02 178.06 C 625.22 200.03 625.10 222.01 625.08 243.98 C 624.95 256.95 614.64 268.91 601.81 270.88 C 595.60 271.70 589.30 271.22 583.06 271.24 C 573.04 271.07 563.02 271.36 553.00 271.11 C 534.01 270.74 514.98 271.52 496.00 270.82 C 482.32 270.59 470.05 258.76 469.58 245.04 C 469.37 235.77 469.39 226.48 469.58 217.21 C 470.32 206.80 470.69 196.28 469.44 185.89 C 468.57 176.80 470.73 166.96 477.26 160.25 M 552.41 181.33 C 549.85 183.05 549.09 186.26 548.09 188.99 C 543.70 202.54 538.96 215.98 534.55 229.51 C 533.28 232.50 535.53 236.38 539.00 235.63 C 542.93 236.37 543.86 231.84 544.94 229.09 C 549.63 214.58 554.99 200.27 559.34 185.65 C 560.38 181.70 555.38 180.27 552.41 181.33 M 522.51 190.65 C 515.94 194.43 510.72 200.21 504.59 204.66 C 501.77 206.40 500.02 210.53 502.97 213.03 C 508.79 217.88 514.57 222.82 520.48 227.57 C 524.05 230.62 529.99 225.99 528.30 221.76 C 525.13 216.83 518.76 214.69 515.69 209.93 C 517.42 203.91 525.94 202.33 528.33 196.32 C 529.17 193.08 525.68 189.83 522.51 190.65 M 565.33 197.71 C 568.32 202.73 575.50 204.42 577.58 209.99 C 574.45 214.41 569.26 216.74 565.83 220.89 C 563.36 224.38 567.04 230.20 571.33 228.31 C 576.44 225.24 580.26 220.45 585.21 217.11 C 588.17 214.68 593.68 211.50 591.05 206.97 C 585.54 201.43 579.10 196.84 573.10 191.84 C 569.35 188.25 563.26 193.13 565.33 197.71 Z" />
<path fill="#f47db4" opacity="1.00" d=" M 251.33 269.32 C 268.51 268.41 285.80 269.15 303.02 268.95 C 307.95 268.15 313.01 273.65 310.23 278.29 C 308.47 282.25 303.68 282.25 300.00 282.19 C 284.01 281.90 267.99 282.49 252.02 282.00 C 244.95 281.60 244.49 270.59 251.33 269.32 Z" />
<path fill="#f47db4" opacity="1.00" d=" M 352.37 300.33 C 367.19 299.38 382.15 300.11 397.01 299.95 C 402.28 299.54 405.41 306.29 402.38 310.33 C 400.91 312.98 397.64 313.00 395.00 313.14 C 382.33 313.12 369.66 313.03 356.99 313.12 C 354.52 312.96 351.69 313.07 349.74 311.29 C 346.01 308.30 347.86 301.46 352.37 300.33 Z" />
<path fill="#f47db4" opacity="1.00" d=" M 445.35 331.30 C 450.71 330.63 456.28 330.54 461.63 331.36 C 467.03 333.28 467.02 341.59 461.66 343.55 C 456.05 344.46 450.14 344.51 444.56 343.40 C 438.92 341.56 439.62 332.50 445.35 331.30 Z" />
<path fill="#f47db4" opacity="1.00" d=" M 251.33 393.28 C 260.50 392.38 269.79 393.19 279.00 392.88 C 283.12 393.06 288.39 391.94 291.24 395.76 C 294.12 399.77 291.07 406.11 285.98 405.88 C 274.68 406.27 263.31 406.18 252.01 405.92 C 244.99 405.46 244.48 394.61 251.33 393.28 Z" />
</g>
<g id="#7a7ae5ff">
<path fill="#7a7ae5" opacity="1.00" d=" M 198.52 193.67 C 207.96 187.94 219.17 186.44 230.00 186.01 C 309.81 185.87 389.63 186.10 469.44 185.89 C 470.69 196.28 470.32 206.80 469.58 217.21 C 390.72 217.69 311.85 217.22 232.99 217.44 C 219.62 217.72 206.89 226.21 201.55 238.47 C 198.68 244.90 198.30 252.06 198.39 259.00 C 198.55 315.65 198.25 372.30 198.54 428.94 C 198.80 447.07 214.81 462.92 232.96 462.86 C 324.64 462.94 416.32 462.84 508.00 462.90 C 516.51 463.03 525.48 463.33 533.24 459.26 C 544.79 453.92 552.52 441.69 552.90 429.04 C 552.99 376.40 552.83 323.76 553.00 271.11 C 563.02 271.36 573.04 271.07 583.06 271.24 C 583.41 319.15 583.10 367.08 583.21 415.00 C 582.97 428.94 584.63 443.54 578.96 456.70 C 575.48 465.65 567.80 472.55 566.49 482.39 C 576.02 482.74 585.56 482.28 595.08 482.60 C 601.21 483.38 604.88 490.22 604.03 495.98 C 602.85 510.89 592.81 524.85 578.79 530.24 C 574.96 531.50 572.03 534.84 568.05 535.52 C 442.03 535.74 316.02 535.63 190.00 535.61 C 183.92 535.44 176.89 536.71 171.93 532.27 C 169.27 529.43 166.11 527.22 162.77 525.27 C 153.14 517.59 146.86 505.46 147.15 493.03 C 147.33 487.46 152.11 482.01 157.96 482.49 C 167.10 481.82 176.65 483.99 185.50 481.16 C 183.89 476.56 182.00 471.98 178.81 468.23 C 169.96 456.08 167.74 440.67 167.96 426.00 C 167.99 365.00 167.95 304.01 167.98 243.01 C 168.71 222.77 180.46 203.08 198.52 193.67 Z" />
</g>
<g id="#fec95bff">
<path fill="#fec95b" opacity="1.00" d=" M 334.38 269.39 C 349.16 268.44 364.11 268.79 378.91 269.19 C 386.81 269.09 386.79 281.91 378.95 282.00 C 364.35 282.37 349.66 282.38 335.07 282.00 C 327.91 281.81 327.46 270.42 334.38 269.39 Z" />
<path fill="#fec95b" opacity="1.00" d=" M 473.42 300.45 C 479.15 299.56 485.03 299.72 490.79 300.29 C 495.46 300.51 498.18 306.60 495.32 310.27 C 492.61 314.29 487.12 313.06 483.00 313.25 C 478.73 312.91 473.36 314.45 470.10 310.87 C 466.92 307.51 468.97 301.39 473.42 300.45 Z" />
<path fill="#fec95b" opacity="1.00" d=" M 250.50 331.46 C 262.89 330.04 275.52 331.26 288.00 330.84 C 292.29 331.00 298.30 329.79 300.70 334.42 C 303.19 338.53 299.66 344.07 294.96 343.95 C 282.33 344.52 269.65 343.96 257.00 344.21 C 253.75 344.07 249.66 344.42 247.45 341.53 C 244.69 338.27 246.40 332.64 250.50 331.46 Z" />
<path fill="#fec95b" opacity="1.00" d=" M 333.48 362.49 C 339.18 361.30 345.14 361.81 350.92 362.08 C 355.37 362.02 358.82 367.48 356.44 371.36 C 354.43 375.68 348.96 375.10 345.00 375.20 C 340.72 374.92 336.03 375.97 332.07 373.92 C 327.78 371.23 328.76 364.08 333.48 362.49 Z" />
</g>
<g id="#74d5f2ff">
<path fill="#74d5f2" opacity="1.00" d=" M 408.36 269.36 C 417.17 268.58 426.09 268.99 434.93 269.12 C 441.87 269.09 441.93 282.06 434.91 281.79 C 426.05 282.11 417.08 282.43 408.24 281.68 C 402.04 280.57 402.29 270.53 408.36 269.36 Z" />
<path fill="#74d5f2" opacity="1.00" d=" M 306.29 300.30 C 312.39 299.72 318.61 299.73 324.71 300.28 C 330.67 301.67 330.68 311.36 324.62 312.57 C 318.28 313.15 311.79 313.39 305.49 312.51 C 299.63 310.58 300.38 301.53 306.29 300.30 Z" />
<path fill="#74d5f2" opacity="1.00" d=" M 389.42 331.36 C 398.20 330.50 407.13 331.13 415.96 331.03 C 420.89 330.92 423.98 337.19 421.06 341.10 C 418.60 344.70 413.74 343.76 410.00 344.05 C 403.14 343.74 396.23 344.49 389.42 343.56 C 383.59 342.17 383.72 332.88 389.42 331.36 Z" />
<path fill="#74d5f2" opacity="1.00" d=" M 251.38 362.38 C 268.55 361.45 285.83 362.24 303.04 361.99 C 307.89 361.27 312.69 366.65 310.25 371.26 C 308.95 374.59 305.14 375.08 302.03 375.09 C 286.69 375.16 271.34 374.98 256.00 375.12 C 253.29 375.01 250.03 375.17 248.12 372.87 C 245.19 369.47 246.88 363.38 251.38 362.38 Z" />
<path fill="#74d5f2" opacity="1.00" d=" M 408.32 393.31 C 413.43 392.71 418.66 392.77 423.78 393.22 C 429.97 394.36 429.37 405.63 422.92 405.77 C 417.83 406.18 412.62 406.28 407.58 405.40 C 401.87 403.70 402.68 394.52 408.32 393.31 Z" />
</g>
</svg>
